<?xml version="1.0" encoding="UTF-8" standalone="no"?><svg xmlns="http://www.w3.org/2000/svg" xmlns:xlink="http://www.w3.org/1999/xlink" contentScriptType="application/ecmascript" contentStyleType="text/css" height="1452px" preserveAspectRatio="none" style="width:361px;height:1452px;" version="1.1" viewBox="0 0 361 1452" width="361px" zoomAndPan="magnify"><defs><filter height="300%" id="f16ynqp0x0fgfz" width="300%" x="-1" y="-1"><feGaussianBlur result="blurOut" stdDeviation="2.0"/><feColorMatrix in="blurOut" result="blurOut2" type="matrix" values="0 0 0 0 0 0 0 0 0 0 0 0 0 0 0 0 0 0 .4 0"/><feOffset dx="4.0" dy="4.0" in="blurOut2" result="blurOut3"/><feBlend in="SourceGraphic" in2="blurOut3" mode="normal"/></filter></defs><g><ellipse cx="171" cy="20" fill="#000000" filter="url(#f16ynqp0x0fgfz)" rx="10" ry="10" style="stroke: none; stroke-width: 1.0;"/><rect fill="#FEFECE" filter="url(#f16ynqp0x0fgfz)" height="35.0938" rx="12.5" ry="12.5" style="stroke: #A80036; stroke-width: 1.5;" width="157" x="92.5" y="50"/><text fill="#000000" font-family="sans-serif" font-size="12" lengthAdjust="spacingAndGlyphs" textLength="137" x="102.5" y="72.457">Protect Document Family</text><rect fill="#FEFECE" filter="url(#f16ynqp0x0fgfz)" height="35.0938" rx="12.5" ry="12.5" style="stroke: #A80036; stroke-width: 1.5;" width="175" x="83.5" y="105.0938"/><text fill="#000000" font-family="sans-serif" font-size="12" lengthAdjust="spacingAndGlyphs" textLength="155" x="93.5" y="127.5508">Send to Encryption Workflow</text><rect fill="#FEFECE" filter="url(#f16ynqp0x0fgfz)" height="35.0938" rx="12.5" ry="12.5" style="stroke: #A80036; stroke-width: 1.5;" width="196" x="73" y="209.1055"/><text fill="#000000" font-family="sans-serif" font-size="12" lengthAdjust="spacingAndGlyphs" textLength="176" x="83" y="231.5625">Send to Archive Cleanup Worker</text><polygon fill="#FF0000" filter="url(#f16ynqp0x0fgfz)" points="118,160.1875,224,160.1875,236,172.1875,224,184.1875,118,184.1875,106,172.1875,118,160.1875" style="stroke: #A80036; stroke-width: 1.5;"/><text fill="#000000" font-family="sans-serif" font-size="11" lengthAdjust="spacingAndGlyphs" textLength="12" x="175" y="195.6064">no</text><text fill="#000000" font-family="sans-serif" font-size="11" lengthAdjust="spacingAndGlyphs" textLength="106" x="118" y="176.6885">Document has HOLD?</text><polygon fill="#FF0000" filter="url(#f16ynqp0x0fgfz)" points="171,264.1992,183,276.1992,171,288.1992,159,276.1992,171,264.1992" style="stroke: #A80036; stroke-width: 1.5;"/><rect fill="#FEFECE" filter="url(#f16ynqp0x0fgfz)" height="35.0938" rx="12.5" ry="12.5" style="stroke: #A80036; stroke-width: 1.5;" width="193" x="74.5" y="308.1992"/><text fill="#000000" font-family="sans-serif" font-size="12" lengthAdjust="spacingAndGlyphs" textLength="173" x="84.5" y="330.6563">Send to Elastic Indexing Worker</text><polygon fill="#FEFECE" filter="url(#f16ynqp0x0fgfz)" points="108.5,412.2109,233.5,412.2109,245.5,424.2109,233.5,436.2109,108.5,436.2109,96.5,424.2109,108.5,412.2109" style="stroke: #A80036; stroke-width: 1.5;"/><text fill="#000000" font-family="sans-serif" font-size="11" lengthAdjust="spacingAndGlyphs" textLength="125" x="108.5" y="428.7119">Archive Failures Present?</text><text fill="#000000" font-family="sans-serif" font-size="11" lengthAdjust="spacingAndGlyphs" textLength="18" x="78.5" y="421.7939">yes</text><text fill="#000000" font-family="sans-serif" font-size="11" lengthAdjust="spacingAndGlyphs" textLength="12" x="245.5" y="421.7939">no</text><rect fill="#FEFECE" filter="url(#f16ynqp0x0fgfz)" height="35.0938" rx="12.5" ry="12.5" style="stroke: #A80036; stroke-width: 1.5;" width="153" x="10" y="446.2109"/><text fill="#000000" font-family="sans-serif" font-size="12" lengthAdjust="spacingAndGlyphs" textLength="133" x="20" y="468.668">Add each failure to index</text><rect fill="#FEFECE" filter="url(#f16ynqp0x0fgfz)" height="35.0938" rx="12.5" ry="12.5" style="stroke: #A80036; stroke-width: 1.5;" width="104" x="203.5" y="495.1289"/><text fill="#000000" font-family="sans-serif" font-size="12" lengthAdjust="spacingAndGlyphs" textLength="84" x="213.5" y="517.5859">Create a failure</text><polygon fill="#FFC0CB" filter="url(#f16ynqp0x0fgfz)" points="223,446.2109,288,446.2109,300,458.2109,288,470.2109,223,470.2109,211,458.2109,223,446.2109" style="stroke: #A80036; stroke-width: 1.5;"/><text fill="#000000" font-family="sans-serif" font-size="11" lengthAdjust="spacingAndGlyphs" textLength="18" x="259.5" y="481.6299">yes</text><text fill="#000000" font-family="sans-serif" font-size="11" lengthAdjust="spacingAndGlyphs" textLength="65" x="223" y="462.7119">ACW invoked</text><polygon fill="#FFC0CB" filter="url(#f16ynqp0x0fgfz)" points="255.5,550.2227,267.5,562.2227,255.5,574.2227,243.5,562.2227,255.5,550.2227" style="stroke: #A80036; stroke-width: 1.5;"/><polygon fill="#FEFECE" filter="url(#f16ynqp0x0fgfz)" points="171,580.2227,183,592.2227,171,604.2227,159,592.2227,171,580.2227" style="stroke: #A80036; stroke-width: 1.5;"/><polygon fill="#98FB98" filter="url(#f16ynqp0x0fgfz)" points="102,363.293,240,363.293,252,375.293,240,387.293,102,387.293,90,375.293,102,363.293" style="stroke: #A80036; stroke-width: 1.5;"/><text fill="#000000" font-family="sans-serif" font-size="11" lengthAdjust="spacingAndGlyphs" textLength="18" x="175" y="398.7119">yes</text><text fill="#000000" font-family="sans-serif" font-size="11" lengthAdjust="spacingAndGlyphs" textLength="138" x="102" y="379.7939">Document has ARCHIVE_ID?</text><polygon fill="#98FB98" filter="url(#f16ynqp0x0fgfz)" points="171,624.2227,183,636.2227,171,648.2227,159,636.2227,171,624.2227" style="stroke: #A80036; stroke-width: 1.5;"/><rect fill="#FEFECE" filter="url(#f16ynqp0x0fgfz)" height="35.0938" rx="12.5" ry="12.5" style="stroke: #A80036; stroke-width: 1.5;" width="140" x="101" y="717.1406"/><text fill="#000000" font-family="sans-serif" font-size="12" lengthAdjust="spacingAndGlyphs" textLength="120" x="111" y="739.5977">Remove ARCHIVE_ID</text><rect fill="#FFA500" filter="url(#f16ynqp0x0fgfz)" height="35.0938" rx="12.5" ry="12.5" style="stroke: #A80036; stroke-width: 1.5;" width="153" x="94.5" y="821.1523"/><text fill="#000000" font-family="sans-serif" font-size="12" lengthAdjust="spacingAndGlyphs" textLength="133" x="104.5" y="843.6094">Add Broken Hold Failure</text><rect fill="#FFA500" filter="url(#f16ynqp0x0fgfz)" height="35.0938" rx="12.5" ry="12.5" style="stroke: #A80036; stroke-width: 1.5;" width="105" x="118.5" y="891.2461"/><text fill="#000000" font-family="sans-serif" font-size="12" lengthAdjust="spacingAndGlyphs" textLength="82" x="131.5" y="913.7031">Remove Holds</text><polygon fill="#FFA500" filter="url(#f16ynqp0x0fgfz)" points="132.5,772.2344,209.5,772.2344,221.5,784.2344,209.5,796.2344,132.5,796.2344,120.5,784.2344,132.5,772.2344" style="stroke: #A80036; stroke-width: 1.5;"/><text fill="#000000" font-family="sans-serif" font-size="11" lengthAdjust="spacingAndGlyphs" textLength="18" x="175" y="807.6533">yes</text><text fill="#000000" font-family="sans-serif" font-size="11" lengthAdjust="spacingAndGlyphs" textLength="77" x="132.5" y="788.7354">Index has Holds</text><polygon fill="#FFA500" filter="url(#f16ynqp0x0fgfz)" points="171,946.3398,183,958.3398,171,970.3398,159,958.3398,171,946.3398" style="stroke: #A80036; stroke-width: 1.5;"/><polygon fill="#ADD8E6" filter="url(#f16ynqp0x0fgfz)" points="138.5,668.2227,203.5,668.2227,215.5,680.2227,203.5,692.2227,138.5,692.2227,126.5,680.2227,138.5,668.2227" style="stroke: #A80036; stroke-width: 1.5;"/><text fill="#000000" font-family="sans-serif" font-size="11" lengthAdjust="spacingAndGlyphs" textLength="18" x="175" y="703.6416">yes</text><text fill="#000000" font-family="sans-serif" font-size="11" lengthAdjust="spacingAndGlyphs" textLength="65" x="138.5" y="684.7236">ACW invoked</text><polygon fill="#ADD8E6" filter="url(#f16ynqp0x0fgfz)" points="171,990.3398,183,1002.3398,171,1014.3398,159,1002.3398,171,990.3398" style="stroke: #A80036; stroke-width: 1.5;"/><rect fill="#FEFECE" filter="url(#f16ynqp0x0fgfz)" height="35.0938" rx="12.5" ry="12.5" style="stroke: #A80036; stroke-width: 1.5;" width="112" x="115" y="1034.3398"/><text fill="#000000" font-family="sans-serif" font-size="12" lengthAdjust="spacingAndGlyphs" textLength="92" x="125" y="1056.7969">Remove Content</text><rect fill="#FEFECE" filter="url(#f16ynqp0x0fgfz)" height="35.0938" rx="12.5" ry="12.5" style="stroke: #A80036; stroke-width: 1.5;" width="149" x="96.5" y="1089.4336"/><text fill="#000000" font-family="sans-serif" font-size="12" lengthAdjust="spacingAndGlyphs" textLength="129" x="106.5" y="1111.8906">Reset Collection Status</text><rect fill="#FEFECE" filter="url(#f16ynqp0x0fgfz)" height="35.0938" rx="12.5" ry="12.5" style="stroke: #A80036; stroke-width: 1.5;" width="140" x="101" y="1144.5273"/><text fill="#000000" font-family="sans-serif" font-size="12" lengthAdjust="spacingAndGlyphs" textLength="120" x="111" y="1166.9844">Remove Export Fields</text><rect fill="#FEFECE" filter="url(#f16ynqp0x0fgfz)" height="35.0938" rx="12.5" ry="12.5" style="stroke: #A80036; stroke-width: 1.5;" width="147" x="97.5" y="1199.6211"/><text fill="#000000" font-family="sans-serif" font-size="12" lengthAdjust="spacingAndGlyphs" textLength="127" x="107.5" y="1222.0781">Remove Entity Matches</text><rect fill="#FEFECE" filter="url(#f16ynqp0x0fgfz)" height="35.0938" rx="12.5" ry="12.5" style="stroke: #A80036; stroke-width: 1.5;" width="157" x="92.5" y="1254.7148"/><text fill="#000000" font-family="sans-serif" font-size="12" lengthAdjust="spacingAndGlyphs" textLength="137" x="102.5" y="1277.1719">Reset Enrichment Status</text><rect fill="#FEFECE" filter="url(#f16ynqp0x0fgfz)" height="35.0938" rx="12.5" ry="12.5" style="stroke: #A80036; stroke-width: 1.5;" width="185" x="78.5" y="1309.8086"/><text fill="#000000" font-family="sans-serif" font-size="12" lengthAdjust="spacingAndGlyphs" textLength="165" x="88.5" y="1332.2656">Update PROTECTION_STATE</text><rect fill="#FEFECE" filter="url(#f16ynqp0x0fgfz)" height="35.0938" rx="12.5" ry="12.5" style="stroke: #A80036; stroke-width: 1.5;" width="200" x="71" y="1364.9023"/><text fill="#000000" font-family="sans-serif" font-size="12" lengthAdjust="spacingAndGlyphs" textLength="180" x="81" y="1387.3594">Update PROTECTION_HISTORY</text><ellipse cx="171" cy="1430.9961" fill="#FFFFFF" filter="url(#f16ynqp0x0fgfz)" rx="11" ry="11" style="stroke: #000000; stroke-width: 1.0;"/><ellipse cx="171" cy="1430.9961" fill="#000000" rx="6" ry="6" style="stroke: #7F7F7F; stroke-width: 1.0;"/><line style="stroke: #A80036; stroke-width: 1.5;" x1="171" x2="171" y1="30" y2="50"/><polygon fill="#A80036" points="167,40,171,50,175,40,171,44" style="stroke: #A80036; stroke-width: 1.0;"/><line style="stroke: #A80036; stroke-width: 1.5;" x1="171" x2="171" y1="85.0938" y2="105.0938"/><polygon fill="#A80036" points="167,95.0938,171,105.0938,175,95.0938,171,99.0938" style="stroke: #A80036; stroke-width: 1.0;"/><line style="stroke: #A80036; stroke-width: 1.5;" x1="171" x2="171" y1="184.1875" y2="209.1055"/><polygon fill="#A80036" points="167,199.1055,171,209.1055,175,199.1055,171,203.1055" style="stroke: #A80036; stroke-width: 1.0;"/><line style="stroke: #A80036; stroke-width: 1.5;" x1="236" x2="279" y1="172.1875" y2="172.1875"/><polygon fill="#A80036" points="275,216.6523,279,226.6523,283,216.6523,279,220.6523" style="stroke: #A80036; stroke-width: 1.5;"/><line style="stroke: #A80036; stroke-width: 1.5;" x1="279" x2="279" y1="172.1875" y2="276.1992"/><line style="stroke: #A80036; stroke-width: 1.5;" x1="279" x2="183" y1="276.1992" y2="276.1992"/><polygon fill="#A80036" points="193,272.1992,183,276.1992,193,280.1992,189,276.1992" style="stroke: #A80036; stroke-width: 1.0;"/><line style="stroke: #A80036; stroke-width: 1.5;" x1="171" x2="171" y1="244.1992" y2="264.1992"/><polygon fill="#A80036" points="167,254.1992,171,264.1992,175,254.1992,171,258.1992" style="stroke: #A80036; stroke-width: 1.0;"/><line style="stroke: #A80036; stroke-width: 1.5;" x1="171" x2="171" y1="140.1875" y2="160.1875"/><polygon fill="#A80036" points="167,150.1875,171,160.1875,175,150.1875,171,154.1875" style="stroke: #A80036; stroke-width: 1.0;"/><line style="stroke: #A80036; stroke-width: 1.5;" x1="171" x2="171" y1="288.1992" y2="308.1992"/><polygon fill="#A80036" points="167,298.1992,171,308.1992,175,298.1992,171,302.1992" style="stroke: #A80036; stroke-width: 1.0;"/><line style="stroke: #A80036; stroke-width: 1.5;" x1="255.5" x2="255.5" y1="470.2109" y2="495.1289"/><polygon fill="#A80036" points="251.5,485.1289,255.5,495.1289,259.5,485.1289,255.5,489.1289" style="stroke: #A80036; stroke-width: 1.0;"/><line style="stroke: #A80036; stroke-width: 1.5;" x1="300" x2="317.5" y1="458.2109" y2="458.2109"/><polygon fill="#A80036" points="313.5,502.6758,317.5,512.6758,321.5,502.6758,317.5,506.6758" style="stroke: #A80036; stroke-width: 1.5;"/><line style="stroke: #A80036; stroke-width: 1.5;" x1="317.5" x2="317.5" y1="458.2109" y2="562.2227"/><line style="stroke: #A80036; stroke-width: 1.5;" x1="317.5" x2="267.5" y1="562.2227" y2="562.2227"/><polygon fill="#A80036" points="277.5,558.2227,267.5,562.2227,277.5,566.2227,273.5,562.2227" style="stroke: #A80036; stroke-width: 1.0;"/><line style="stroke: #A80036; stroke-width: 1.5;" x1="255.5" x2="255.5" y1="530.2227" y2="550.2227"/><polygon fill="#A80036" points="251.5,540.2227,255.5,550.2227,259.5,540.2227,255.5,544.2227" style="stroke: #A80036; stroke-width: 1.0;"/><line style="stroke: #A80036; stroke-width: 1.5;" x1="96.5" x2="86.5" y1="424.2109" y2="424.2109"/><line style="stroke: #A80036; stroke-width: 1.5;" x1="86.5" x2="86.5" y1="424.2109" y2="446.2109"/><polygon fill="#A80036" points="82.5,436.2109,86.5,446.2109,90.5,436.2109,86.5,440.2109" style="stroke: #A80036; stroke-width: 1.0;"/><line style="stroke: #A80036; stroke-width: 1.5;" x1="245.5" x2="255.5" y1="424.2109" y2="424.2109"/><line style="stroke: #A80036; stroke-width: 1.5;" x1="255.5" x2="255.5" y1="424.2109" y2="446.2109"/><polygon fill="#A80036" points="251.5,436.2109,255.5,446.2109,259.5,436.2109,255.5,440.2109" style="stroke: #A80036; stroke-width: 1.0;"/><line style="stroke: #A80036; stroke-width: 1.5;" x1="86.5" x2="86.5" y1="481.3047" y2="592.2227"/><line style="stroke: #A80036; stroke-width: 1.5;" x1="86.5" x2="159" y1="592.2227" y2="592.2227"/><polygon fill="#A80036" points="149,588.2227,159,592.2227,149,596.2227,153,592.2227" style="stroke: #A80036; stroke-width: 1.0;"/><line style="stroke: #A80036; stroke-width: 1.5;" x1="255.5" x2="255.5" y1="574.2227" y2="592.2227"/><line style="stroke: #A80036; stroke-width: 1.5;" x1="255.5" x2="183" y1="592.2227" y2="592.2227"/><polygon fill="#A80036" points="193,588.2227,183,592.2227,193,596.2227,189,592.2227" style="stroke: #A80036; stroke-width: 1.0;"/><line style="stroke: #A80036; stroke-width: 1.5;" x1="171" x2="171" y1="387.293" y2="412.2109"/><polygon fill="#A80036" points="167,402.2109,171,412.2109,175,402.2109,171,406.2109" style="stroke: #A80036; stroke-width: 1.0;"/><line style="stroke: #A80036; stroke-width: 1.5;" x1="252" x2="335.5" y1="375.293" y2="375.293"/><polygon fill="#A80036" points="331.5,500.6758,335.5,510.6758,339.5,500.6758,335.5,504.6758" style="stroke: #A80036; stroke-width: 1.5;"/><line style="stroke: #A80036; stroke-width: 1.5;" x1="335.5" x2="335.5" y1="375.293" y2="636.2227"/><line style="stroke: #A80036; stroke-width: 1.5;" x1="335.5" x2="183" y1="636.2227" y2="636.2227"/><polygon fill="#A80036" points="193,632.2227,183,636.2227,193,640.2227,189,636.2227" style="stroke: #A80036; stroke-width: 1.0;"/><line style="stroke: #A80036; stroke-width: 1.5;" x1="171" x2="171" y1="604.2227" y2="624.2227"/><polygon fill="#A80036" points="167,614.2227,171,624.2227,175,614.2227,171,618.2227" style="stroke: #A80036; stroke-width: 1.0;"/><line style="stroke: #A80036; stroke-width: 1.5;" x1="171" x2="171" y1="343.293" y2="363.293"/><polygon fill="#A80036" points="167,353.293,171,363.293,175,353.293,171,357.293" style="stroke: #A80036; stroke-width: 1.0;"/><line style="stroke: #A80036; stroke-width: 1.5;" x1="171" x2="171" y1="856.2461" y2="891.2461"/><polygon fill="#A80036" points="167,881.2461,171,891.2461,175,881.2461,171,885.2461" style="stroke: #A80036; stroke-width: 1.0;"/><line style="stroke: #A80036; stroke-width: 1.5;" x1="171" x2="171" y1="796.2344" y2="821.1523"/><polygon fill="#A80036" points="167,811.1523,171,821.1523,175,811.1523,171,815.1523" style="stroke: #A80036; stroke-width: 1.0;"/><line style="stroke: #A80036; stroke-width: 1.5;" x1="221.5" x2="257.5" y1="784.2344" y2="784.2344"/><polygon fill="#A80036" points="253.5,863.7461,257.5,873.7461,261.5,863.7461,257.5,867.7461" style="stroke: #A80036; stroke-width: 1.5;"/><line style="stroke: #A80036; stroke-width: 1.5;" x1="257.5" x2="257.5" y1="784.2344" y2="958.3398"/><line style="stroke: #A80036; stroke-width: 1.5;" x1="257.5" x2="183" y1="958.3398" y2="958.3398"/><polygon fill="#A80036" points="193,954.3398,183,958.3398,193,962.3398,189,958.3398" style="stroke: #A80036; stroke-width: 1.0;"/><line style="stroke: #A80036; stroke-width: 1.5;" x1="171" x2="171" y1="926.3398" y2="946.3398"/><polygon fill="#A80036" points="167,936.3398,171,946.3398,175,936.3398,171,940.3398" style="stroke: #A80036; stroke-width: 1.0;"/><line style="stroke: #A80036; stroke-width: 1.5;" x1="171" x2="171" y1="752.2344" y2="772.2344"/><polygon fill="#A80036" points="167,762.2344,171,772.2344,175,762.2344,171,766.2344" style="stroke: #A80036; stroke-width: 1.0;"/><line style="stroke: #A80036; stroke-width: 1.5;" x1="171" x2="171" y1="692.2227" y2="717.1406"/><polygon fill="#A80036" points="167,707.1406,171,717.1406,175,707.1406,171,711.1406" style="stroke: #A80036; stroke-width: 1.0;"/><line style="stroke: #A80036; stroke-width: 1.5;" x1="215.5" x2="279.5" y1="680.2227" y2="680.2227"/><polygon fill="#A80036" points="275.5,828.6992,279.5,838.6992,283.5,828.6992,279.5,832.6992" style="stroke: #A80036; stroke-width: 1.5;"/><line style="stroke: #A80036; stroke-width: 1.5;" x1="279.5" x2="279.5" y1="680.2227" y2="1002.3398"/><line style="stroke: #A80036; stroke-width: 1.5;" x1="279.5" x2="183" y1="1002.3398" y2="1002.3398"/><polygon fill="#A80036" points="193,998.3398,183,1002.3398,193,1006.3398,189,1002.3398" style="stroke: #A80036; stroke-width: 1.0;"/><line style="stroke: #A80036; stroke-width: 1.5;" x1="171" x2="171" y1="970.3398" y2="990.3398"/><polygon fill="#A80036" points="167,980.3398,171,990.3398,175,980.3398,171,984.3398" style="stroke: #A80036; stroke-width: 1.0;"/><line style="stroke: #A80036; stroke-width: 1.5;" x1="171" x2="171" y1="648.2227" y2="668.2227"/><polygon fill="#A80036" points="167,658.2227,171,668.2227,175,658.2227,171,662.2227" style="stroke: #A80036; stroke-width: 1.0;"/><line style="stroke: #A80036; stroke-width: 1.5;" x1="171" x2="171" y1="1014.3398" y2="1034.3398"/><polygon fill="#A80036" points="167,1024.3398,171,1034.3398,175,1024.3398,171,1028.3398" style="stroke: #A80036; stroke-width: 1.0;"/><line style="stroke: #A80036; stroke-width: 1.5;" x1="171" x2="171" y1="1069.4336" y2="1089.4336"/><polygon fill="#A80036" points="167,1079.4336,171,1089.4336,175,1079.4336,171,1083.4336" style="stroke: #A80036; stroke-width: 1.0;"/><line style="stroke: #A80036; stroke-width: 1.5;" x1="171" x2="171" y1="1124.5273" y2="1144.5273"/><polygon fill="#A80036" points="167,1134.5273,171,1144.5273,175,1134.5273,171,1138.5273" style="stroke: #A80036; stroke-width: 1.0;"/><line style="stroke: #A80036; stroke-width: 1.5;" x1="171" x2="171" y1="1179.6211" y2="1199.6211"/><polygon fill="#A80036" points="167,1189.6211,171,1199.6211,175,1189.6211,171,1193.6211" style="stroke: #A80036; stroke-width: 1.0;"/><line style="stroke: #A80036; stroke-width: 1.5;" x1="171" x2="171" y1="1234.7148" y2="1254.7148"/><polygon fill="#A80036" points="167,1244.7148,171,1254.7148,175,1244.7148,171,1248.7148" style="stroke: #A80036; stroke-width: 1.0;"/><line style="stroke: #A80036; stroke-width: 1.5;" x1="171" x2="171" y1="1289.8086" y2="1309.8086"/><polygon fill="#A80036" points="167,1299.8086,171,1309.8086,175,1299.8086,171,1303.8086" style="stroke: #A80036; stroke-width: 1.0;"/><line style="stroke: #A80036; stroke-width: 1.5;" x1="171" x2="171" y1="1344.9023" y2="1364.9023"/><polygon fill="#A80036" points="167,1354.9023,171,1364.9023,175,1354.9023,171,1358.9023" style="stroke: #A80036; stroke-width: 1.0;"/><line style="stroke: #A80036; stroke-width: 1.5;" x1="171" x2="171" y1="1399.9961" y2="1419.9961"/><polygon fill="#A80036" points="167,1409.9961,171,1419.9961,175,1409.9961,171,1413.9961" style="stroke: #A80036; stroke-width: 1.0;"/><!--MD5=[c2553485c19d0a847d69afd4563aa22d]
@startuml
start
    :Protect Document Family;
      :Send to Encryption Workflow;
      #red:if (Document has HOLD?) then (no)
        :Send to Archive Cleanup Worker;
      endif
      :Send to Elastic Indexing Worker;
      #palegreen:if (Document has ARCHIVE_ID?) then (yes)
        if (Archive Failures Present?) then (yes)
            :Add each failure to index;
        else (no)            
            #pink:if (ACW invoked) then (yes)                  
                :Create a failure;
            endif
        endif
      endif
      #lightblue:if (ACW invoked) then (yes)
        :Remove ARCHIVE_ID;
        #orange:if (Index has Holds) then (yes)   
            #orange:Add Broken Hold Failure;
            #orange: Remove Holds;
        endif
      endif   
      :Remove Content;
      :Reset Collection Status;
      :Remove Export Fields;
      :Remove Entity Matches;
      :Reset Enrichment Status;
      :Update PROTECTION_STATE;
      :Update PROTECTION_HISTORY;
stop



@enduml

PlantUML version 1.2020.03beta6(Unknown compile time)
(GPL source distribution)
Java Runtime: OpenJDK Runtime Environment
JVM: OpenJDK 64-Bit Server VM
Java Version: 11.0.4+10-b304.77
Operating System: Windows 10
Default Encoding: Cp1252
Language: en
Country: GB
--></g></svg>