<?xml version="1.0" encoding="UTF-8" standalone="no"?><svg xmlns="http://www.w3.org/2000/svg" xmlns:xlink="http://www.w3.org/1999/xlink" contentScriptType="application/ecmascript" contentStyleType="text/css" height="775px" preserveAspectRatio="none" style="width:1211px;height:775px;" version="1.1" viewBox="0 0 1211 775" width="1211.25px" zoomAndPan="magnify"><defs><filter height="300%" id="fszrewduoce49" width="300%" x="-1" y="-1"><feGaussianBlur result="blurOut" stdDeviation="2.5"/><feColorMatrix in="blurOut" result="blurOut2" type="matrix" values="0 0 0 0 0 0 0 0 0 0 0 0 0 0 0 0 0 0 .4 0"/><feOffset dx="5.0" dy="5.0" in="blurOut2" result="blurOut3"/><feBlend in="SourceGraphic" in2="blurOut3" mode="normal"/></filter></defs><g><!--MD5=[770389ab9df153645bc6ef28055eb2b5]
entity A--><rect fill="#FEFECE" filter="url(#fszrewduoce49)" height="47.0117" style="stroke: #A80036; stroke-width: 1.875;" width="71.25" x="722.5" y="446.875"/><rect fill="#FEFECE" height="6.25" style="stroke: #A80036; stroke-width: 1.875;" width="12.5" x="716.25" y="453.125"/><rect fill="#FEFECE" height="6.25" style="stroke: #A80036; stroke-width: 1.875;" width="12.5" x="716.25" y="481.3867"/><text fill="#000000" font-family="sans-serif" font-size="17.5" lengthAdjust="spacingAndGlyphs" textLength="46.25" x="735" y="477.5415">Agent</text><!--MD5=[35c2e37136e15d21f0274ba7b0a5ae3c]
entity SUI--><rect fill="#FEFECE" filter="url(#fszrewduoce49)" height="47.0117" style="stroke: #A80036; stroke-width: 1.875;" width="213.75" x="7.5" y="33.125"/><rect fill="#FEFECE" height="6.25" style="stroke: #A80036; stroke-width: 1.875;" width="12.5" x="1.25" y="39.375"/><rect fill="#FEFECE" height="6.25" style="stroke: #A80036; stroke-width: 1.875;" width="12.5" x="1.25" y="67.6367"/><text fill="#000000" font-family="sans-serif" font-size="17.5" lengthAdjust="spacingAndGlyphs" textLength="188.75" x="20" y="63.7915">Tag Service Swagger UI</text><!--MD5=[74e842dee22da02aed4455829c86ed4b]
entity ECAUI--><rect fill="#FEFECE" filter="url(#fszrewduoce49)" height="47.0117" style="stroke: #A80036; stroke-width: 1.875;" width="60" x="709.375" y="33.125"/><rect fill="#FEFECE" height="6.25" style="stroke: #A80036; stroke-width: 1.875;" width="12.5" x="703.125" y="39.375"/><rect fill="#FEFECE" height="6.25" style="stroke: #A80036; stroke-width: 1.875;" width="12.5" x="703.125" y="67.6367"/><text fill="#000000" font-family="sans-serif" font-size="17.5" lengthAdjust="spacingAndGlyphs" textLength="35" x="721.875" y="63.7915">ECA</text><!--MD5=[1ff4ffe7ce099392eaa3a18e9f938228]
entity ECAWB--><rect fill="#FEFECE" filter="url(#fszrewduoce49)" height="47.0117" style="stroke: #A80036; stroke-width: 1.875;" width="60" x="838.125" y="446.875"/><rect fill="#FEFECE" height="6.25" style="stroke: #A80036; stroke-width: 1.875;" width="12.5" x="831.875" y="453.125"/><rect fill="#FEFECE" height="6.25" style="stroke: #A80036; stroke-width: 1.875;" width="12.5" x="831.875" y="481.3867"/><text fill="#000000" font-family="sans-serif" font-size="17.5" lengthAdjust="spacingAndGlyphs" textLength="35" x="850.625" y="477.5415">ECA</text><!--MD5=[16fab723be418f7eaf2ea4bd895a8e51]
entity C--><rect fill="#FEFECE" filter="url(#fszrewduoce49)" height="47.0117" style="stroke: #A80036; stroke-width: 1.875;" width="128.75" x="693.75" y="592.5"/><rect fill="#FEFECE" height="6.25" style="stroke: #A80036; stroke-width: 1.875;" width="12.5" x="687.5" y="598.75"/><rect fill="#FEFECE" height="6.25" style="stroke: #A80036; stroke-width: 1.875;" width="12.5" x="687.5" y="627.0117"/><text fill="#000000" font-family="sans-serif" font-size="17.5" lengthAdjust="spacingAndGlyphs" textLength="103.75" x="706.25" y="623.1665">Classification</text><!--MD5=[34c03d534faab791d8af77818b55f59b]
entity TS--><rect fill="#FEFECE" filter="url(#fszrewduoce49)" height="47.0117" style="stroke: #A80036; stroke-width: 1.875;" width="182.5" x="335.625" y="178.75"/><rect fill="#FEFECE" height="6.25" style="stroke: #A80036; stroke-width: 1.875;" width="12.5" x="329.375" y="185"/><rect fill="#FEFECE" height="6.25" style="stroke: #A80036; stroke-width: 1.875;" width="12.5" x="329.375" y="213.2617"/><text fill="#000000" font-family="sans-serif" font-size="17.5" lengthAdjust="spacingAndGlyphs" textLength="157.5" x="348.125" y="209.4165">Legacy Tag Service</text><!--MD5=[ad41aca18c70598adf1be20eed337942]
entity JS--><rect fill="#FEFECE" filter="url(#fszrewduoce49)" height="47.0117" style="stroke: #A80036; stroke-width: 1.875;" width="116.25" x="368.75" y="301.25"/><rect fill="#FEFECE" height="6.25" style="stroke: #A80036; stroke-width: 1.875;" width="12.5" x="362.5" y="307.5"/><rect fill="#FEFECE" height="6.25" style="stroke: #A80036; stroke-width: 1.875;" width="12.5" x="362.5" y="335.7617"/><text fill="#000000" font-family="sans-serif" font-size="17.5" lengthAdjust="spacingAndGlyphs" textLength="91.25" x="381.25" y="331.9165">Job Service</text><!--MD5=[36c179afd0391342d2ea187b096c7f2d]
entity EI--><rect fill="#FEFECE" filter="url(#fszrewduoce49)" height="47.0117" style="stroke: #A80036; stroke-width: 1.875;" width="208.75" x="381.25" y="592.5"/><rect fill="#FEFECE" height="6.25" style="stroke: #A80036; stroke-width: 1.875;" width="12.5" x="375" y="598.75"/><rect fill="#FEFECE" height="6.25" style="stroke: #A80036; stroke-width: 1.875;" width="12.5" x="375" y="627.0117"/><text fill="#000000" font-family="sans-serif" font-size="17.5" lengthAdjust="spacingAndGlyphs" textLength="183.75" x="393.75" y="623.1665">Worker Elastic Indexing</text><!--MD5=[3205df017ddef4854d29ba3b31c0b4bf]
entity EQ--><rect fill="#FEFECE" filter="url(#fszrewduoce49)" height="47.0117" style="stroke: #A80036; stroke-width: 1.875;" width="192.5" x="330.625" y="446.875"/><rect fill="#FEFECE" height="6.25" style="stroke: #A80036; stroke-width: 1.875;" width="12.5" x="324.375" y="453.125"/><rect fill="#FEFECE" height="6.25" style="stroke: #A80036; stroke-width: 1.875;" width="12.5" x="324.375" y="481.3867"/><text fill="#000000" font-family="sans-serif" font-size="17.5" lengthAdjust="spacingAndGlyphs" textLength="167.5" x="343.125" y="477.5415">Worker Elastic Query</text><!--MD5=[2c66eac863e8692b6a7cd143adcae0dd]
entity ES--><rect fill="#FEFECE" filter="url(#fszrewduoce49)" height="47.0117" style="stroke: #A80036; stroke-width: 1.875;" width="130" x="420.625" y="715"/><rect fill="#FEFECE" height="6.25" style="stroke: #A80036; stroke-width: 1.875;" width="12.5" x="414.375" y="721.25"/><rect fill="#FEFECE" height="6.25" style="stroke: #A80036; stroke-width: 1.875;" width="12.5" x="414.375" y="749.5117"/><text fill="#000000" font-family="sans-serif" font-size="17.5" lengthAdjust="spacingAndGlyphs" textLength="105" x="433.125" y="745.6665">Elasticsearch</text><path d="M567.5,454.375 L567.5,487.3145 A0,0 0 0 0 567.5,487.3145 L678.75,487.3145 A0,0 0 0 0 678.75,487.3145 L678.75,476.875 L722.2825,470.625 L678.75,466.875 L678.75,466.875 L666.25,454.375 L567.5,454.375 A0,0 0 0 0 567.5,454.375 " fill="#AAFFAA" filter="url(#fszrewduoce49)" style="stroke: #A80036; stroke-width: 1.25;"/><path d="M666.25,454.375 L666.25,466.875 L678.75,466.875 L666.25,454.375 " fill="#AAFFAA" style="stroke: #A80036; stroke-width: 1.25;"/><text fill="#000000" font-family="sans-serif" font-size="16.25" lengthAdjust="spacingAndGlyphs" textLength="85" x="575" y="477.4939">Reingestion</text><path d="M265,40.625 L265,51.875 L221.4913,56.875 L265,61.875 L265,73.5645 A0,0 0 0 0 265,73.5645 L451.25,73.5645 A0,0 0 0 0 451.25,73.5645 L451.25,53.125 L438.75,40.625 L265,40.625 A0,0 0 0 0 265,40.625 " fill="#FFAAAA" filter="url(#fszrewduoce49)" style="stroke: #A80036; stroke-width: 1.25;"/><path d="M438.75,40.625 L438.75,53.125 L451.25,53.125 L438.75,40.625 " fill="#FFAAAA" style="stroke: #A80036; stroke-width: 1.25;"/><text fill="#000000" font-family="sans-serif" font-size="16.25" lengthAdjust="spacingAndGlyphs" textLength="160" x="272.5" y="63.7439">Tag CRUD Operations</text><path d="M941.875,423.75 L941.875,465.625 L898.3912,470.625 L941.875,475.625 L941.875,518.0078 A0,0 0 0 0 941.875,518.0078 L1196.875,518.0078 A0,0 0 0 0 1196.875,518.0078 L1196.875,436.25 L1184.375,423.75 L941.875,423.75 A0,0 0 0 0 941.875,423.75 " fill="#00FFFF" filter="url(#fszrewduoce49)" style="stroke: #A80036; stroke-width: 1.25;"/><path d="M1184.375,423.75 L1184.375,436.25 L1196.875,436.25 L1184.375,423.75 " fill="#00FFFF" style="stroke: #A80036; stroke-width: 1.25;"/><text fill="#000000" font-family="sans-serif" font-size="16.25" lengthAdjust="spacingAndGlyphs" textLength="138.75" x="949.375" y="446.8689">Periodic updates of</text><text fill="#000000" font-family="sans-serif" font-size="16.25" lengthAdjust="spacingAndGlyphs" textLength="152.5" x="949.375" y="467.3083">Dynamic / Automatic</text><text fill="#000000" font-family="sans-serif" font-size="16.25" lengthAdjust="spacingAndGlyphs" textLength="73.75" x="949.375" y="487.7478">Workbook</text><text fill="#000000" font-family="sans-serif" font-size="16.25" lengthAdjust="spacingAndGlyphs" textLength="228.75" x="949.375" y="508.1873">(depends on case being known)</text><path d="M866.25,600 L866.25,611.25 L822.5437,616.25 L866.25,621.25 L866.25,632.9395 A0,0 0 0 0 866.25,632.9395 L1045,632.9395 A0,0 0 0 0 1045,632.9395 L1045,612.5 L1032.5,600 L866.25,600 A0,0 0 0 0 866.25,600 " fill="#AAFFAA" filter="url(#fszrewduoce49)" style="stroke: #A80036; stroke-width: 1.25;"/><path d="M1032.5,600 L1032.5,612.5 L1045,612.5 L1032.5,600 " fill="#AAFFAA" style="stroke: #A80036; stroke-width: 1.25;"/><text fill="#000000" font-family="sans-serif" font-size="16.25" lengthAdjust="spacingAndGlyphs" textLength="152.5" x="873.75" y="623.1189">status-updated-script</text><path d="M495.625,10 L495.625,104.2578 A0,0 0 0 0 495.625,104.2578 L665.625,104.2578 A0,0 0 0 0 665.625,104.2578 L665.625,61.875 L709.0763,56.875 L665.625,51.875 L665.625,22.5 L653.125,10 L495.625,10 A0,0 0 0 0 495.625,10 " fill="#00FFFF" filter="url(#fszrewduoce49)" style="stroke: #A80036; stroke-width: 1.25;"/><path d="M653.125,10 L653.125,22.5 L665.625,22.5 L653.125,10 " fill="#00FFFF" style="stroke: #A80036; stroke-width: 1.25;"/><text fill="#000000" font-family="sans-serif" font-size="16.25" lengthAdjust="spacingAndGlyphs" textLength="138.75" x="503.125" y="33.1189">Periodic updates of</text><text fill="#000000" font-family="sans-serif" font-size="16.25" lengthAdjust="spacingAndGlyphs" textLength="52.5" x="503.125" y="53.5583">Manual</text><text fill="#000000" font-family="sans-serif" font-size="16.25" lengthAdjust="spacingAndGlyphs" textLength="91.25" x="503.125" y="73.9978">Datascource</text><text fill="#000000" font-family="sans-serif" font-size="16.25" lengthAdjust="spacingAndGlyphs" textLength="37.5" x="503.125" y="94.4373">Case</text><path d="M813.75,40.625 L813.75,51.875 L769.4725,56.875 L813.75,61.875 L813.75,73.5645 A0,0 0 0 0 813.75,73.5645 L1000,73.5645 A0,0 0 0 0 1000,73.5645 L1000,53.125 L987.5,40.625 L813.75,40.625 A0,0 0 0 0 813.75,40.625 " fill="#FFAAAA" filter="url(#fszrewduoce49)" style="stroke: #A80036; stroke-width: 1.25;"/><path d="M987.5,40.625 L987.5,53.125 L1000,53.125 L987.5,40.625 " fill="#FFAAAA" style="stroke: #A80036; stroke-width: 1.25;"/><text fill="#000000" font-family="sans-serif" font-size="16.25" lengthAdjust="spacingAndGlyphs" textLength="160" x="821.25" y="63.7439">Tag CRUD Operations</text><path d="M166.875,308.75 L166.875,341.6895 A0,0 0 0 0 166.875,341.6895 L324.375,341.6895 A0,0 0 0 0 324.375,341.6895 L324.375,331.25 L368.5275,325 L324.375,321.25 L324.375,321.25 L311.875,308.75 L166.875,308.75 A0,0 0 0 0 166.875,308.75 " fill="#AAB5FF" filter="url(#fszrewduoce49)" style="stroke: #A80036; stroke-width: 1.25;"/><path d="M311.875,308.75 L311.875,321.25 L324.375,321.25 L311.875,308.75 " fill="#AAB5FF" style="stroke: #A80036; stroke-width: 1.25;"/><text fill="#000000" font-family="sans-serif" font-size="16.25" lengthAdjust="spacingAndGlyphs" textLength="131.25" x="174.375" y="331.8689">legacy-tagging-job</text><!--MD5=[a3abfc44c4fcd031d617ec7971143fba]
link SUI to TS--><path d="M163.5475,80.6463 C220.0463,106.5225 312.5388,148.8838 371.5187,175.8975 " fill="none" id="SUI-&gt;TS" style="stroke: #A80036; stroke-width: 1.25;"/><polygon fill="#A80036" points="377.4738,178.625,369.3255,169.3963,371.7908,176.0237,365.1634,178.489,377.4738,178.625" style="stroke: #A80036; stroke-width: 1.25;"/><!--MD5=[a6db0c189d4abc667c97d08110fdbac2]
link ECAUI to TS--><path d="M716.7262,80.9512 C707.9413,88.925 697.4575,97.4475 686.875,103.75 C633.3413,135.63 567.59,160.1713 515.6038,176.6588 " fill="none" id="ECAUI-&gt;TS" style="stroke: #A80036; stroke-width: 1.25;"/><polygon fill="#A80036" points="509.3338,178.6288,521.5652,180.027,515.2964,176.7555,518.5679,170.4867,509.3338,178.6288" style="stroke: #A80036; stroke-width: 1.25;"/><!--MD5=[256182c2eb47b8b5524250cacd8a8ff9]
link TS to JS--><path d="M426.875,226.3213 C426.875,245.6412 426.875,273.5813 426.875,294.5913 " fill="none" id="TS-&gt;JS" style="stroke: #A80036; stroke-width: 1.25;"/><polygon fill="#A80036" points="426.875,300.8725,431.875,289.6225,426.875,294.6225,421.875,289.6225,426.875,300.8725" style="stroke: #A80036; stroke-width: 1.25;"/><!--MD5=[cac3b17bc9829a8cc3b26a21d5805fe8]
link JS to EQ--><path d="M426.875,348.9288 C426.875,373.635 426.875,413.2313 426.875,440.2275 " fill="none" id="JS-&gt;EQ" style="stroke: #A80036; stroke-width: 1.25;"/><polygon fill="#A80036" points="426.875,446.8025,431.875,435.5525,426.875,440.5525,421.875,435.5525,426.875,446.8025" style="stroke: #A80036; stroke-width: 1.25;"/><!--MD5=[cf419936080167a91721d88394615f0a]
link EQ to EI--><path d="M436.1838,494.5538 C446.4113,519.4688 462.855,559.5275 473.9413,586.5363 " fill="none" id="EQ-&gt;EI" style="stroke: #A80036; stroke-width: 1.25;"/><polygon fill="#A80036" points="476.36,592.4275,476.7139,580.1215,473.9869,586.6456,467.4628,583.9185,476.36,592.4275" style="stroke: #A80036; stroke-width: 1.25;"/><!--MD5=[7e3676bb296ff0346eb5b01d51d21712]
link EI to ES--><path d="M485.625,640.0711 C485.625,659.3908 485.625,687.3309 485.625,708.3414 " fill="none" id="EI-&gt;ES" style="stroke: #A80036; stroke-width: 1.25;"/><polygon fill="#A80036" points="485.625,714.6221,490.625,703.3721,485.625,708.3721,480.625,703.3721,485.625,714.6221" style="stroke: #A80036; stroke-width: 1.25;"/><!--MD5=[55c538e11c4d7c89a422130d8d6a78b4]
link ECAWB to C--><path d="M850.695,494.5538 C831.385,519.6788 800.24,560.2025 779.48,587.2137 " fill="none" id="ECAWB-&gt;C" style="stroke: #A80036; stroke-width: 1.25;"/><polygon fill="#A80036" points="775.4738,592.4275,786.294,586.5551,779.2826,587.4722,778.3655,580.4609,775.4738,592.4275" style="stroke: #A80036; stroke-width: 1.25;"/><!--MD5=[e1650921a81fac0037ec207a42ac4e7e]
link A to C--><path d="M758.125,494.5538 C758.125,519.26 758.125,558.8563 758.125,585.8525 " fill="none" id="A-&gt;C" style="stroke: #A80036; stroke-width: 1.25;"/><polygon fill="#A80036" points="758.125,592.4275,763.125,581.1775,758.125,586.1775,753.125,581.1775,758.125,592.4275" style="stroke: #A80036; stroke-width: 1.25;"/><!--MD5=[6f06253174085588b3fee828b283ce57]
reverse link EI to C--><path d="M596.92,616.25 C629.1525,616.25 661.3863,616.25 693.6188,616.25 " fill="none" id="EI&lt;-C" style="stroke: #A80036; stroke-width: 1.25;"/><polygon fill="#A80036" points="590.4738,616.25,601.7238,621.25,596.7238,616.25,601.7238,611.25,590.4738,616.25" style="stroke: #A80036; stroke-width: 1.25;"/><!--MD5=[a77e08ec40b54b65eda36d15e561a5ca]
@startuml
[Agent] as A
[Tag Service Swagger UI] as SUI
[ECA] as ECAUI
[ECA] as ECAWB
[Classification] as C
[Legacy Tag Service] as TS
[Job Service] as JS
[Worker Elastic Indexing] as EI
[Worker Elastic Query] as EQ
[Elasticsearch] as ES

note left of A #aaffaa
  Reingestion
end note
note right of SUI #FFAAAA
  Tag CRUD Operations
end note
note right of ECAWB #aqua
  Periodic updates of 
  Dynamic / Automatic
  Workbook
  (depends on case being known)
end note
note right of C #aaffaa
  status-updated-script
end note
note left of ECAUI #aqua
  Periodic updates of 
  Manual
  Datascource
  Case
end note
note right of ECAUI #FFAAAA
  Tag CRUD Operations
end note
note left of JS #aab5ff
  legacy-tagging-job
end note

SUI - -> TS
ECAUI - -> TS
TS - -> JS
JS - -> EQ
EQ - -> EI
EI - -> ES
ECAWB - -> C
A - -> C
C -l-> EI
@enduml

PlantUML version 1.2020.03beta6(Unknown compile time)
(GPL source distribution)
Java Runtime: OpenJDK Runtime Environment
JVM: OpenJDK 64-Bit Server VM
Java Version: 11.0.4+10-b304.77
Operating System: Windows 10
Default Encoding: Cp1252
Language: en
Country: GB
--></g></svg>